<svg width="172" height="197" viewBox="0 0 172 197" xmlns="http://www.w3.org/2000/svg"><g fill="none" fill-rule="evenodd"><circle fill="#FFF" cx="87" cy="114" r="63"/><path d="M39.74 30h92.52c13.82 0 18.83 1.44 23.88 4.14a28.17 28.17 0 0111.72 11.72c2.7 5.05 4.14 10.06 4.14 23.88V129c0 17.39-1.81 23.7-5.2 30.05a35.44 35.44 0 01-14.75 14.74A36.24 36.24 0 01141 177.7V197H31v-19.3a36.24 36.24 0 01-11.05-3.9 35.44 35.44 0 01-14.74-14.75C1.85 152.77.04 146.54 0 129.62L0 69.74c0-13.82 1.44-18.83 4.14-23.88a28.17 28.17 0 0111.72-11.72C20.9 31.44 25.92 30 39.74 30zm46.73 99.91c-19.59 0-32.58 6.5-38.44 17.37a3.89 3.89 0 001.55 5.25 3.83 3.83 0 005.2-1.56c4.25-7.86 14.63-10.16 31.7-10.16 17.06 0 27.44 2.3 31.68 10.16a3.83 3.83 0 005.21 1.56 3.89 3.89 0 001.55-5.25c-5.86-10.87-18.86-17.37-38.45-17.37zM57.91 75.95c-7.07 0-12.8 5.97-12.8 13.34s5.73 13.34 12.8 13.34c7.06 0 12.8-5.97 12.8-13.34s-5.74-13.34-12.8-13.34zm58.18 0c-7.06 0-12.8 5.97-12.8 13.34s5.74 13.34 12.8 13.34c7.07 0 12.8-5.97 12.8-13.34s-5.73-13.34-12.8-13.34zM128 0v23H44V0h84z" fill="#000"/></g></svg>
