<svg width="172" height="197" viewBox="0 0 172 197" xmlns="http://www.w3.org/2000/svg"><g fill="none" fill-rule="evenodd"><g><circle cx="81" cy="114" r="63"/><path d="M39.74 30h92.52c13.82 0 18.83 1.44 23.88 4.14a28.17 28.17 0 0111.72 11.72c2.7 5.05 4.14 10.06 4.14 23.88V129c0 17.39-1.81 23.7-5.2 30.05a35.44 35.44 0 01-14.75 14.74A36.24 36.24 0 01141 177.7V197H31v-19.3a36.24 36.24 0 01-11.05-3.9 35.44 35.44 0 01-14.74-14.75C1.85 152.77.04 146.54 0 129.62L0 69.74c0-13.82 1.44-18.83 4.14-23.88a28.17 28.17 0 0111.72-11.72C20.9 31.44 25.92 30 39.74 30zm83.73 100.4a3.84 3.84 0 00-5.22 1.55c-4.25 7.86-14.66 10.16-31.78 10.16-17.11 0-27.52-2.3-31.77-10.16a3.84 3.84 0 00-5.22-1.55 3.88 3.88 0 00-1.55 5.25C53.8 146.5 66.83 153 86.47 153c19.65 0 32.68-6.5 38.55-17.35a3.88 3.88 0 00-1.55-5.25zM57.83 76C50.74 76 45 81.97 45 89.33s5.74 13.33 12.83 13.33c7.08 0 12.83-5.97 12.83-13.33S64.9 76 57.83 76zm58.34 0c-7.08 0-12.83 5.97-12.83 13.33s5.75 13.33 12.83 13.33c7.09 0 12.83-5.97 12.83-13.33S123.26 76 116.17 76zM128 0v23H44V0h84z" fill="#FFED00"/></g></g></svg>
