<svg width="470" height="218" viewBox="0 0 470 218" xmlns="http://www.w3.org/2000/svg"><title>LEGO</title><g fill="none" fill-rule="evenodd"><path class="lego-white" fill="#FFF" d="M70.6 22.46l367.92 5.32v75.1l-36.06 90.19H12.63L37.13 86.3z"/><path d="M194.15.7c18.79 0 30.68 5 40.78 13.07a92.44 92.44 0 0149-12.68c24.26 0 42.34 5.63 54.95 18.08a81.8 81.8 0 0153.77-17.85c27.24 0 45.16 9.87 55.65 24.5 14.87 20.67 12.21 41.49 9.47 63.48-2.27 18-14.4 51.27-20.82 64.5-17.22 35.69-40.39 63-84.92 63-23.8 0-43.37-7.5-54.8-22.15a89.55 89.55 0 01-59.8 22.4c-17.21 0-32.4-4.94-43.98-14.1a85.47 85.47 0 01-49.16 14.01 70.6 70.6 0 01-41.64-12.52 82.19 82.19 0 01-47.9 11.9C22.89 215.55.82 195.36.19 166-.59 127.03 32.3 55.64 47.71 30.99A57.45 57.45 0 0198.58 1.72c23.48 0 32.1 6.73 36.24 15.26C152.98 1.64 177.01.7 194.15.7zm0 15.8c-23.56 0-47.2 3.14-61.52 26.23l-5.95 9.47-.47-11.2c-.31-8.68-1.1-12.28-5.16-16.5-4.39-4.7-11.82-6.97-22.78-6.97a40.54 40.54 0 00-36.79 21.36c-13.54 21.53-46.18 92.36-45.4 126.02.47 21.84 15.03 35.22 39.06 35.77 19.73.47 35.38-4.62 45.4-14.63l2.58-2.59 2.35 2.66a51.11 51.11 0 0038.35 15.11c20.12 0 37.34-6.26 47.2-17.22l2.66-2.97 2.58 3.13c9.16 11.35 23.49 17.3 41.25 17.22a75.85 75.85 0 0059.41-29.2l3.76-4.77 2.2 5.71c8.91 24.42 33.26 28.1 46.95 28.1 46.58 0 66.7-32.01 84.07-83.52 4.3-12.83 9.23-31.93 10.02-47.27v-.08c.62-11.58-.94-27.79-11.9-39.37-8.77-9.16-22.07-13.86-39.6-13.86a66.22 66.22 0 00-53.23 23.33l-3.37 4.07-2.34-4.77a28.22 28.22 0 00-5.25-7.83c-8.92-10.18-23.95-15.27-44.54-15.27a73.97 73.97 0 00-48.05 15.97l-3.14 2.59-2.1-3.45c-5.72-9.31-19.97-15.26-36.25-15.26z" fill="#FFED00" class="lego-yellow" fill-rule="nonzero"/><path d="M455.34 12.05V8.6h2.35c1.65 0 2.59.63 2.59 1.72 0 .87-.55 1.73-2.35 1.73h-2.59zm8.3 7.04l-1.4-2.5c-1.26-2.2-1.57-2.5-2.67-2.9 2.11-.31 3.37-1.64 3.37-3.52 0-1.96-1.26-3.45-3.92-3.45h-6.26V19.1h2.58V14h.47c1.1 0 1.57.16 2.04.63.55.55 1.25 1.57 1.72 2.43l1.02 2.03h3.13-.08zm-6.1-15.89a9.63 9.63 0 11.07 19.26 9.63 9.63 0 110-19.26h-.07zm0-2.35a11.98 11.98 0 100 23.96 11.98 11.98 0 000-23.96zm-65.2 12.84a69.66 69.66 0 00-55.81 24.58 31.54 31.54 0 00-5.72-8.61c-9.94-11.2-25.83-16.44-47.2-16.44-20.81 0-38.19 6.5-50.24 16.75-6.27-10.17-21.3-16.9-39.3-16.9-23.48 0-49.15 3.36-64.41 27.86-.32-8.85-1.18-13.54-6.11-18.79-6.03-6.34-15.81-8.06-25.28-8.06A43.83 43.83 0 0058.5 37.1C44.89 58.78 11.86 130.32 12.64 165c.47 22.39 15.5 38.51 42.34 39.14 20.98.54 37.5-5.1 47.98-15.66a54.4 54.4 0 0040.86 16.2c19.18 0 38.36-5.79 49.7-18.31 9.63 11.74 24.66 18.63 44 18.55a79.37 79.37 0 0062.06-30.53c7.99 21.68 28.18 30.3 50.25 30.3 48.38 0 69.67-33.27 87.36-85.87 3.9-11.82 9.31-31.62 10.17-48.22 1.41-27.63-10.25-56.9-55.02-56.9zM70.56 145.97c25.05-4.38 31.3 4.7 30.53 13-2.35 25.04-25.36 30.68-45.4 30.2-14.4-.3-27.47-6.96-27.87-23.79-.62-29.43 29.43-97.53 43.52-120.07C77.92 34.6 85.82 29.27 98.5 29.27c12.06 0 15.03 6.26 14.88 13.62-.47 19.64-32.33 79.6-42.82 103v.08zm81.48-23.17a259.08 259.08 0 00-7.28 23.8 82.19 82.19 0 0124.9-3.21c11.97.31 19.72 5.24 19.72 15.18 0 24.1-26.62 31.15-45.17 31.23-20.27 0-38.11-11.58-38.11-33.73 0-26.07 14.08-65.52 27.4-91.74 16.2-32.32 32.87-36.55 61.43-36.55 12.53 0 27 5.32 27 17.22 0 16.44-13.92 22.7-27.7 23.48-5.95.4-15.03.7-20.43.31 0 0-4.62 7.05-9.47 19.5 25.6-3.6 36.4 2.19 32.1 16.98-5.88 19.96-23.18 21.29-44.39 17.53zM277.9 60.58c-6.96 0-11.43 4.38-14.87 9.07-7.36 10.5-23.48 52.21-25.99 69.35-1.64 11.74 3.37 14.1 8.93 14.1 8.92 0 18.86-9.4 22.3-24.9 0 0-16.98-.39-12.28-15.42 4.54-14.56 13.15-17.69 27.4-18.31 28.1-1.18 25.27 19.57 23.08 30.68-7.36 35.93-32.87 64.73-69.03 64.73-24.74 0-40.16-13.7-40.16-38.9 0-18 8.93-46.18 16.05-62.77 15.03-35.23 30.84-59.73 71-59.73 24.18 0 43.2 8.61 40.38 31.31-2.04 16.52-10.33 26.3-25.44 27.4-4.23.39-21.45 0-15.73-16.44 2.03-5.71 2.82-10.17-5.64-10.17zm151.85 29.74c-4.23 21.13-13.78 46.18-24.19 64.8-16.9 30.53-37.49 34.76-55.5 34.53-17.92-.24-38.19-6.81-38.34-34.52-.08-19.88 8.53-47.98 15.8-66.38 12.69-33.42 25.68-60.58 66.7-60.1 47.74.54 39.29 43.04 35.53 61.59v.08zm-34.13-20.9c-.47 12.76-19.17 63.87-25.83 75.14-2.9 4.85-6.1 8.92-11.97 8.92-5.09 0-7.44-3.67-7.6-7.82-.3-11.5 20.83-69.27 28.1-78.67 3.14-5 6.74-5.79 10.88-5.71 6.03 0 6.58 4.38 6.42 8.14z" class="lego-black" fill="#000" fill-rule="nonzero"/></g></svg>
