<svg width="160" height="160" viewBox="0 0 160 160" xmlns="http://www.w3.org/2000/svg"><g transform="translate(10)" fill="none" fill-rule="evenodd"><circle fill="#926801" cx="65.79" cy="92.59" r="51.17"/><path d="M99.96 24.37c13.81 0 18.82 1.43 23.88 4.14a28.17 28.17 0 0111.71 11.71c2.7 5.06 4.15 10.07 4.15 23.89v31.57c0 17.03-1.81 23.4-5.21 29.75a35.44 35.44 0 01-14.75 14.74c-1.67.9-3.35 1.68-5.22 2.36V160H25.18v-17.47a38.33 38.33 0 01-5.23-2.36 35.44 35.44 0 01-14.74-14.74C1.85 119.15.04 112.87 0 96.3L0 64.1C0 50.3 1.44 45.29 4.14 40.23a28.17 28.17 0 0111.72-11.71c5.05-2.7 10.06-4.14 23.88-4.14h60.22zm.32 81.54a3.12 3.12 0 00-4.24 1.26c-3.45 6.38-11.9 8.25-25.8 8.25s-22.36-1.87-25.81-8.25a3.12 3.12 0 00-4.25-1.26 3.15 3.15 0 00-1.25 4.26c4.76 8.82 15.35 14.1 31.3 14.1 15.96 0 26.54-5.28 31.3-14.1a3.15 3.15 0 00-1.25-4.26zM46.97 61.73c-5.76 0-10.42 4.84-10.42 10.82s4.66 10.83 10.42 10.83c5.75 0 10.42-4.85 10.42-10.83s-4.67-10.82-10.42-10.82zm47.38 0c-5.75 0-10.42 4.84-10.42 10.82s4.67 10.83 10.42 10.83c5.76 0 10.42-4.85 10.42-10.83s-4.66-10.82-10.42-10.82zM103.95 0v18.68H35.75V0h68.22z" fill="#F1DBA7"/></g></svg>
